<?xml version="1.0" encoding="UTF-8"?>
<svg width="24px" height="24px" viewBox="0 0 24 24" version="1.1" xmlns="http://www.w3.org/2000/svg">
    <g stroke="none" stroke-width="1" fill="none" fill-rule="evenodd">
        <path d="M20.4,10.5 C20.8,10.9 21,11.4 21,12 C21,12.6 20.8,13.1 20.4,13.5 L16.5,17.4 C15.7,18.2 14.7,18.5 13.5,18.5 C12.3,18.5 11.3,18.2 10.5,17.4 L9.8,16.7 C9.4,16.3 9.2,15.8 9.2,15.2 C9.2,14.6 9.4,14.1 9.8,13.7 L13.7,9.8 C14.1,9.4 14.6,9.2 15.2,9.2 C15.8,9.2 16.3,9.4 16.7,9.8 L17.4,10.5 C18.2,11.3 19.6,11.3 20.4,10.5 Z" fill="#4A90E2"></path>
        <path d="M3.6,13.5 C3.2,13.1 3,12.6 3,12 C3,11.4 3.2,10.9 3.6,10.5 L7.5,6.6 C8.3,5.8 9.3,5.5 10.5,5.5 C11.7,5.5 12.7,5.8 13.5,6.6 L14.2,7.3 C14.6,7.7 14.8,8.2 14.8,8.8 C14.8,9.4 14.6,9.9 14.2,10.3 L10.3,14.2 C9.9,14.6 9.4,14.8 8.8,14.8 C8.2,14.8 7.7,14.6 7.3,14.2 L6.6,13.5 C5.8,12.7 4.4,12.7 3.6,13.5 Z" fill="#4A90E2" opacity="0.6"></path>
    </g>
</svg>
